<mxfile host="Electron" modified="2024-05-19T14:56:45.407Z" agent="Mozilla/5.0 (Windows NT 10.0; Win64; x64) AppleWebKit/537.36 (KHTML, like Gecko) draw.io/24.2.5 Chrome/120.0.6099.109 Electron/28.1.0 Safari/537.36" etag="7yrI_29YPDmH2LCRpGj6" version="24.2.5" type="device">
  <diagram name="Side-1" id="zGbsFK9Ps-QXJO3GrENg">
    <mxGraphModel dx="333" dy="285" grid="0" gridSize="10" guides="1" tooltips="1" connect="1" arrows="1" fold="1" page="1" pageScale="1" pageWidth="827" pageHeight="1169" math="0" shadow="0">
      <root>
        <mxCell id="0" />
        <mxCell id="1" parent="0" />
        <mxCell id="aIvHawDQzk9AKYSY7quT-17" value="belt 1" style="text;html=1;align=center;verticalAlign=middle;whiteSpace=wrap;rounded=0;fontSize=10;" parent="1" vertex="1">
          <mxGeometry x="211" y="78.5" width="60" height="30" as="geometry" />
        </mxCell>
        <mxCell id="aIvHawDQzk9AKYSY7quT-18" value="belt 2" style="text;html=1;align=center;verticalAlign=middle;whiteSpace=wrap;rounded=0;fontSize=10;" parent="1" vertex="1">
          <mxGeometry x="211" y="97" width="60" height="30" as="geometry" />
        </mxCell>
        <mxCell id="XbBxayx_aqGSO9xCxAOB-2" value="item passing" style="rounded=0;whiteSpace=wrap;html=1;fontSize=3;" vertex="1" parent="1">
          <mxGeometry x="262" y="90" width="20" height="7" as="geometry" />
        </mxCell>
        <mxCell id="XbBxayx_aqGSO9xCxAOB-4" value="&lt;font style=&quot;font-size: 3px;&quot;&gt;sleep&lt;/font&gt;" style="rounded=0;whiteSpace=wrap;html=1;glass=0;shadow=0;gradientDirection=north;fillStyle=auto;fillColor=#f5f5f5;strokeWidth=1;strokeColor=#666666;fontColor=#333333;verticalAlign=middle;fontSize=3;" vertex="1" parent="1">
          <mxGeometry x="353" y="90" width="60" height="7" as="geometry" />
        </mxCell>
        <mxCell id="XbBxayx_aqGSO9xCxAOB-5" value="&lt;font style=&quot;font-size: 3px;&quot;&gt;sleep&lt;/font&gt;" style="rounded=0;whiteSpace=wrap;html=1;glass=0;shadow=0;gradientDirection=north;fillStyle=auto;fillColor=#f5f5f5;strokeWidth=1;strokeColor=#666666;fontColor=#333333;fontSize=3;" vertex="1" parent="1">
          <mxGeometry x="282.5" y="90" width="70" height="7" as="geometry" />
        </mxCell>
        <mxCell id="XbBxayx_aqGSO9xCxAOB-6" value="processing" style="rounded=0;whiteSpace=wrap;html=1;fontSize=3;verticalAlign=middle;spacingBottom=0;" vertex="1" parent="1">
          <mxGeometry x="414" y="90" width="60" height="7" as="geometry" />
        </mxCell>
        <mxCell id="XbBxayx_aqGSO9xCxAOB-7" value="waiting for next item" style="rounded=0;whiteSpace=wrap;html=1;fontSize=3;" vertex="1" parent="1">
          <mxGeometry x="474" y="90" width="55" height="7" as="geometry" />
        </mxCell>
        <mxCell id="XbBxayx_aqGSO9xCxAOB-8" value="item passing" style="rounded=0;whiteSpace=wrap;html=1;fontSize=3;" vertex="1" parent="1">
          <mxGeometry x="282" y="108.5" width="60" height="7" as="geometry" />
        </mxCell>
        <mxCell id="XbBxayx_aqGSO9xCxAOB-12" value="&lt;font style=&quot;font-size: 3px;&quot;&gt;sleep&lt;/font&gt;" style="rounded=0;whiteSpace=wrap;html=1;glass=0;shadow=0;gradientDirection=north;fillStyle=auto;fillColor=#f5f5f5;strokeWidth=1;strokeColor=#666666;fontColor=#333333;fontSize=3;" vertex="1" parent="1">
          <mxGeometry x="343" y="108.5" width="70" height="7" as="geometry" />
        </mxCell>
        <mxCell id="XbBxayx_aqGSO9xCxAOB-13" value="&lt;font style=&quot;font-size: 3px;&quot;&gt;blocked&lt;/font&gt;" style="rounded=0;whiteSpace=wrap;html=1;fillColor=#f8cecc;strokeColor=#b85450;fontSize=3;" vertex="1" parent="1">
          <mxGeometry x="414" y="108.5" width="115" height="7" as="geometry" />
        </mxCell>
        <mxCell id="XbBxayx_aqGSO9xCxAOB-15" value="&lt;font style=&quot;font-size: 3px;&quot;&gt;blocked&lt;/font&gt;" style="rounded=0;whiteSpace=wrap;html=1;fillColor=#f8cecc;strokeColor=#b85450;fontSize=3;" vertex="1" parent="1">
          <mxGeometry x="262" y="108.5" width="19" height="7" as="geometry" />
        </mxCell>
        <mxCell id="XbBxayx_aqGSO9xCxAOB-16" value="0: item enters laser" style="endArrow=classic;html=1;rounded=0;endSize=1;labelBackgroundColor=none;fontSize=4;" edge="1" parent="1">
          <mxGeometry x="0.563" y="-16" width="50" height="50" relative="1" as="geometry">
            <mxPoint x="269" y="132" as="sourcePoint" />
            <mxPoint x="282.5" y="116" as="targetPoint" />
            <mxPoint as="offset" />
          </mxGeometry>
        </mxCell>
        <mxCell id="XbBxayx_aqGSO9xCxAOB-17" value="6: item leaves laser" style="endArrow=classic;html=1;rounded=0;endSize=1;labelBackgroundColor=none;fontSize=4;" edge="1" parent="1">
          <mxGeometry x="0.5094" y="-19" width="50" height="50" relative="1" as="geometry">
            <mxPoint x="329.5" y="131.5" as="sourcePoint" />
            <mxPoint x="343" y="115.5" as="targetPoint" />
            <mxPoint as="offset" />
          </mxGeometry>
        </mxCell>
        <mxCell id="XbBxayx_aqGSO9xCxAOB-18" value="13: missed opportunity to begin recording&amp;nbsp;" style="endArrow=classic;html=1;rounded=0;endSize=1;labelBackgroundColor=none;fontSize=4;" edge="1" parent="1">
          <mxGeometry x="1" y="-31" width="50" height="50" relative="1" as="geometry">
            <mxPoint x="400.5" y="131.5" as="sourcePoint" />
            <mxPoint x="414" y="115.5" as="targetPoint" />
            <mxPoint x="3" y="-4" as="offset" />
          </mxGeometry>
        </mxCell>
        <mxCell id="XbBxayx_aqGSO9xCxAOB-19" value="0: item leaves laser" style="endArrow=classic;html=1;rounded=0;endSize=1;entryX=1;entryY=0;entryDx=0;entryDy=0;labelBackgroundColor=none;fontSize=4;" edge="1" parent="1" target="XbBxayx_aqGSO9xCxAOB-2">
          <mxGeometry x="0.9" y="17" width="50" height="50" relative="1" as="geometry">
            <mxPoint x="270" y="74" as="sourcePoint" />
            <mxPoint x="278.25" y="69" as="targetPoint" />
            <mxPoint as="offset" />
          </mxGeometry>
        </mxCell>
        <mxCell id="XbBxayx_aqGSO9xCxAOB-20" value="7: turn on recording" style="endArrow=classic;html=1;rounded=0;endSize=1;entryX=1;entryY=0;entryDx=0;entryDy=0;labelBackgroundColor=none;fontSize=4;" edge="1" parent="1">
          <mxGeometry x="0.76" y="17" width="50" height="50" relative="1" as="geometry">
            <mxPoint x="341" y="74" as="sourcePoint" />
            <mxPoint x="353" y="90" as="targetPoint" />
            <mxPoint as="offset" />
          </mxGeometry>
        </mxCell>
        <mxCell id="XbBxayx_aqGSO9xCxAOB-21" value="13: turn off recording" style="endArrow=classic;html=1;rounded=0;endSize=1;entryX=1;entryY=0;entryDx=0;entryDy=0;labelBackgroundColor=none;fontSize=4;" edge="1" parent="1">
          <mxGeometry x="0.86" y="20" width="50" height="50" relative="1" as="geometry">
            <mxPoint x="402" y="74" as="sourcePoint" />
            <mxPoint x="414" y="90" as="targetPoint" />
            <mxPoint as="offset" />
          </mxGeometry>
        </mxCell>
        <mxCell id="XbBxayx_aqGSO9xCxAOB-23" value="19: end processing" style="endArrow=classic;html=1;rounded=0;endSize=1;entryX=1;entryY=0;entryDx=0;entryDy=0;labelBackgroundColor=none;fontSize=4;" edge="1" parent="1">
          <mxGeometry x="-0.82" y="-18" width="50" height="50" relative="1" as="geometry">
            <mxPoint x="462" y="74" as="sourcePoint" />
            <mxPoint x="474" y="90" as="targetPoint" />
            <mxPoint as="offset" />
          </mxGeometry>
        </mxCell>
        <mxCell id="XbBxayx_aqGSO9xCxAOB-24" value="23: no longer possible to get &lt;br&gt;a long enough recording" style="endArrow=classic;html=1;rounded=0;endSize=1;labelBackgroundColor=none;fontSize=4;" edge="1" parent="1">
          <mxGeometry x="-1" y="31" width="50" height="50" relative="1" as="geometry">
            <mxPoint x="503" y="131.5" as="sourcePoint" />
            <mxPoint x="516.5" y="115.5" as="targetPoint" />
            <mxPoint x="-6" y="10" as="offset" />
          </mxGeometry>
        </mxCell>
        <mxCell id="XbBxayx_aqGSO9xCxAOB-25" value="20: earliest possible new arrival" style="endArrow=classic;html=1;rounded=0;endSize=1;entryX=1;entryY=0;entryDx=0;entryDy=0;labelBackgroundColor=none;fontSize=4;" edge="1" parent="1">
          <mxGeometry x="1" y="24" width="50" height="50" relative="1" as="geometry">
            <mxPoint x="474" y="74" as="sourcePoint" />
            <mxPoint x="486" y="90" as="targetPoint" />
            <mxPoint x="1" as="offset" />
          </mxGeometry>
        </mxCell>
      </root>
    </mxGraphModel>
  </diagram>
</mxfile>
